<?xml version="1.0" standalone="no"?>
<svg viewBox="0 0 200 200" xmlns="http://www.w3.org/2000/svg">
  <path fill="#FFFAD1" d="M44.3,-78C56.7,-69.4,65.8,-56.4,74.2,-42.6C82.6,-28.8,90.3,-14.4,87.4,-1.7C84.6,11.1,71.1,22.2,62.2,35.1C53.4,48.1,49.1,62.9,39.5,66C29.9,69.1,15,60.6,1.6,57.8C-11.8,55.1,-23.6,58.1,-35.4,56.3C-47.2,54.4,-59,47.6,-66.6,37.4C-74.3,27.2,-77.8,13.6,-76.5,0.7C-75.3,-12.2,-69.3,-24.3,-60.1,-31.9C-50.9,-39.5,-38.6,-42.5,-28.1,-52.2C-17.5,-61.9,-8.8,-78.3,3.6,-84.5C15.9,-90.7,31.8,-86.6,44.3,-78Z" transform="translate(100 100)" />
</svg>
